<svg xmlns="http://www.w3.org/2000/svg" xmlns:xlink="http://www.w3.org/1999/xlink" width="60" height="60" viewBox="0 0 60 60">
  <defs>
    <clipPath id="clip-path">
      <path id="Path_205734" data-name="Path 205734" d="M0,0H60V60H0Z" transform="translate(62.187 291.18)" fill="#7c5295"/>
    </clipPath>
  </defs>
  <g id="booking" transform="translate(-62.187 -291.18)" clip-path="url(#clip-path)">
    <g id="svgexport-7" transform="translate(62.187 291.18)">
      <g id="Layer_x0020_1">
        <g id="_404587032">
          <path id="Path_205735" data-name="Path 205735" d="M2.671,15.677H48.26V10.51a4.875,4.875,0,0,0-4.886-4.886h-3.8v2.6a3.005,3.005,0,1,1-6.011,0v-2.6H17.4v2.6a3.023,3.023,0,1,1-6.046,0v-2.6h-3.8A4.875,4.875,0,0,0,2.671,10.51Z" fill="#7c5295"/>
          <path id="Path_205736" data-name="Path 205736" d="M39.086,21.547v4.183h4.183V21.547Z" fill="#7c5295"/>
          <path id="Path_205737" data-name="Path 205737" d="M32.794,25.729V21.547H28.612v4.183Z" fill="#7c5295"/>
          <path id="Path_205738" data-name="Path 205738" d="M22.32,25.729V21.547H18.137v4.183Z" fill="#7c5295"/>
          <path id="Path_205739" data-name="Path 205739" d="M16.766,26.432V20.879a.705.705,0,0,1,.7-.7h5.554a.676.676,0,0,1,.668.7v5.554a.646.646,0,0,1-.668.668H17.469A.676.676,0,0,1,16.766,26.432Zm0,10.475V31.353a.705.705,0,0,1,.7-.7h5.554a.676.676,0,0,1,.668.7v5.554a.676.676,0,0,1-.668.7H17.469A.705.705,0,0,1,16.766,36.907Zm.7,4.253h5.554a.646.646,0,0,1,.668.668v5.589a.667.667,0,0,1-.668.668H17.469a.7.7,0,0,1-.7-.668V41.828A.676.676,0,0,1,17.469,41.16ZM7.557,51.213H32.091l-.176-.879A13.539,13.539,0,0,1,47.381,34.552l.879.141V17.047H2.671V46.327A4.875,4.875,0,0,0,7.557,51.213ZM27.909,27.1a.667.667,0,0,1-.668-.668V20.879a.7.7,0,0,1,.668-.7H33.5a.7.7,0,0,1,.668.7v5.554a.667.667,0,0,1-.668.668Zm10.475,0a.646.646,0,0,1-.668-.668V20.879a.676.676,0,0,1,.668-.7h5.589a.7.7,0,0,1,.668.7v5.554a.667.667,0,0,1-.668.668ZM6.995,30.65h5.554a.705.705,0,0,1,.7.7v5.554a.705.705,0,0,1-.7.7H6.995a.705.705,0,0,1-.7-.7V31.353A.705.705,0,0,1,6.995,30.65Zm20.914,0H33.5a.7.7,0,0,1,.668.7v5.554a.7.7,0,0,1-.668.7H27.909a.7.7,0,0,1-.668-.7V31.353A.7.7,0,0,1,27.909,30.65ZM6.995,41.16h5.554a.676.676,0,0,1,.7.668v5.589a.7.7,0,0,1-.7.668H6.995a.7.7,0,0,1-.7-.668V41.828A.676.676,0,0,1,6.995,41.16Z" fill="#7c5295"/>
          <path id="Path_205740" data-name="Path 205740" d="M11.88,32.021H7.663v4.218H11.88Z" fill="#7c5295"/>
          <path id="Path_205741" data-name="Path 205741" d="M18.137,32.021v4.218H22.32V32.021Z" fill="#7c5295"/>
          <path id="Path_205742" data-name="Path 205742" d="M28.612,32.021v4.218h4.183V32.021Z" fill="#7c5295"/>
          <path id="Path_205743" data-name="Path 205743" d="M22.32,42.531H18.137v4.183H22.32Z" fill="#7c5295"/>
          <path id="Path_205744" data-name="Path 205744" d="M11.88,46.714V42.531H7.663v4.183Z" fill="#7c5295"/>
          <path id="Path_205745" data-name="Path 205745" d="M43.656,35.852A12.087,12.087,0,0,0,33.181,46.327l-.105.844h3.48a.686.686,0,0,1,0,1.371h-3.48l.105.844a12.123,12.123,0,0,0,10.475,10.51L44.5,60V56.52a.685.685,0,0,1,1.371,0V60l.844-.105a12.16,12.16,0,0,0,10.51-10.51l.105-.844h-3.48a.685.685,0,1,1,0-1.371h3.48l-.105-.844a12.123,12.123,0,0,0-10.51-10.475l-.844-.105v3.48a.686.686,0,0,1-1.371,0v-3.48Zm.773,12.021V42.847a.686.686,0,0,1,1.371,0v3.831l1.582-.914a.685.685,0,0,1,.668,1.2A18.689,18.689,0,0,1,45.1,48.541.667.667,0,0,1,44.429,47.873Z" fill="#7c5295"/>
          <path id="Path_205746" data-name="Path 205746" d="M34.938,8.225a1.635,1.635,0,0,0,3.269,0V1.652a1.634,1.634,0,0,0-3.269,0Z" fill="#7c5295"/>
          <path id="Path_205747" data-name="Path 205747" d="M16.028,8.225V1.652A1.673,1.673,0,0,0,14.376,0a1.65,1.65,0,0,0-1.652,1.652V8.225A1.653,1.653,0,0,0,16.028,8.225Z" fill="#7c5295"/>
        </g>
      </g>
    </g>
  </g>
</svg>
