<svg xmlns="http://www.w3.org/2000/svg" xmlns:xlink="http://www.w3.org/1999/xlink" width="48.294" height="50" viewBox="0 0 48.294 50">
  <defs>
    <clipPath id="clip-path">
      <path id="Path_205772" data-name="Path 205772" d="M0,0H48.294V50H0Z" transform="translate(162.853 334)" fill="#7c5295"/>
    </clipPath>
  </defs>
  <g id="Mask_Group_273" data-name="Mask Group 273" transform="translate(-162.853 -334)" clip-path="url(#clip-path)">
    <g id="verification" transform="translate(162.88 334.888)">
      <g id="diamond">
        <path id="Path_205773" data-name="Path 205773" d="M46.165,19.325q-1.5-1.453-3.009-2.928-.042-2.043-.106-4.084a7.292,7.292,0,0,0-2.2-4.912,7.289,7.289,0,0,0-4.921-2.191q-2.046-.063-4.092-.105-1.475-1.5-2.925-3a6.563,6.563,0,0,0-9.6,0Q17.86,3.6,16.383,5.11q-2.046.041-4.091.105a7.538,7.538,0,0,0-7.117,7.1q-.063,2.043-.106,4.084Q3.561,17.876,2.06,19.33a6.532,6.532,0,0,0,0,9.573q1.5,1.452,3.014,2.925.041,2.043.105,4.087a7.522,7.522,0,0,0,7.116,7.1q2.046.065,4.092.106,1.475,1.5,2.93,3a6.573,6.573,0,0,0,9.608,0q1.455-1.5,2.931-3,2.046-.042,4.091-.106a7.536,7.536,0,0,0,7.116-7.1q.064-2.041.105-4.082,1.507-1.475,3.01-2.928a6.518,6.518,0,0,0-.014-9.574ZM36.1,21.059c-4.067,4.226-8.2,8.547-12.263,12.833A3.538,3.538,0,0,1,21.273,35h-.016a3.6,3.6,0,0,1-2.571-1.1q-3.259-3.366-6.539-6.707a3.519,3.519,0,0,1,.072-5.033,3.614,3.614,0,0,1,5.086.063q1.949,2,3.9,4.007c3.226-3.381,6.468-6.782,9.66-10.13a3.58,3.58,0,0,1,5.067-.073,3.53,3.53,0,0,1,.171,5.034Z" fill="#4caf50"/>
      </g>
    </g>
  </g>
</svg>
