<svg id="file-Filled" xmlns="http://www.w3.org/2000/svg" width="24" height="24" viewBox="0 0 24 24">
  <rect id="Path" width="24" height="24" fill="rgba(255,255,255,0)"/>
  <path id="file-Filled_1_" d="M505.75,2702.5v-2.46l4.21,4.21H507.5A1.758,1.758,0,0,1,505.75,2702.5Zm1.75,3.25a3.256,3.256,0,0,1-3.25-3.25v-3H500a4.507,4.507,0,0,0-4.5,4.5v10a4.507,4.507,0,0,0,4.5,4.5h6a4.507,4.507,0,0,0,4.5-4.5v-8.25Z" transform="translate(-491 -2697)" fill="#7c5295"/>
  <line id="Line_85" data-name="Line 85" x1="9" transform="translate(7.5 11.5)" fill="none" stroke="#fff" stroke-linecap="round" stroke-width="1"/>
  <line id="Line_86" data-name="Line 86" x1="9" transform="translate(7.5 15.5)" fill="none" stroke="#fff" stroke-linecap="round" stroke-width="1"/>
</svg>
