<svg xmlns="http://www.w3.org/2000/svg" width="18" height="14" viewBox="0 0 18 14">
  <g id="Group_74814" data-name="Group 74814" transform="translate(-305 -497.977)">
    <g id="Group_74815" data-name="Group 74815">
      <path id="Path_46405" data-name="Path 46405" d="M4,0H14a4,4,0,0,1,4,4v6a4,4,0,0,1-4,4H4a4,4,0,0,1-4-4V4A4,4,0,0,1,4,0Z" transform="translate(305 497.977)" fill="#7c5295"/>
      <g id="user-Filled" transform="translate(316 499.977)">
        <rect id="Path" width="7" height="7" fill="rgba(255,255,255,0)"/>
        <path id="user-Filled_1_" d="M688.229,2700.958a1.458,1.458,0,1,1,1.458,1.458A1.46,1.46,0,0,1,688.229,2700.958Zm2.659,1.771a.67.67,0,0,0-.487.064,1.472,1.472,0,0,1-1.427,0,.675.675,0,0,0-.487-.064,1.315,1.315,0,0,0-.987,1.282v.295a1.032,1.032,0,0,0,.144.527.437.437,0,0,0,.375.209h3.338a.436.436,0,0,0,.375-.209,1.031,1.031,0,0,0,.144-.527v-.295A1.315,1.315,0,0,0,690.888,2702.729Z" transform="translate(-686.188 -2698.771)" fill="#fff"/>
      </g>
      <line id="Line_79" data-name="Line 79" x1="8" transform="translate(307.5 502.477)" fill="none" stroke="#fff" stroke-linecap="round" stroke-width="1"/>
      <line id="Line_80" data-name="Line 80" x1="5" transform="translate(310.5 505.977)" fill="none" stroke="#fff" stroke-linecap="round" stroke-width="1"/>
    </g>
  </g>
</svg>


