<svg xmlns="http://www.w3.org/2000/svg" xmlns:xlink="http://www.w3.org/1999/xlink" width="60" height="60" viewBox="0 0 60 60">
  <defs>
    <clipPath id="clip-path">
      <path id="Path_205753" data-name="Path 205753" d="M0,0H60V60H0Z" transform="translate(65.187 289.18)" fill="#7c5295"/>
    </clipPath>
  </defs>
  <g id="law" transform="translate(-65.187 -289.18)" clip-path="url(#clip-path)">
    <g id="svgexport-7_1_" data-name="svgexport-7 (1)" transform="translate(65.191 289.18)">
      <g id="Page-1">
        <g id="_019---Law-Writing" data-name="019---Law-Writing">
          <path id="Shape" d="M26.714,26.587l1.06,1.345,8.655-6.969-1.052-1.335-.012.009h0L32.28,22.115Z" fill="#7c5295"/>
          <path id="Shape-2" data-name="Shape" d="M19.034,14.9c0,.007.014.01.019.017s.007.017.014.025l6.274,7.929,1,1.262L33.2,18.629,24.808,8.036l-6.857,5.506Z" fill="#7c5295"/>
          <path id="Shape-3" data-name="Shape" d="M20.449,24.192a1.1,1.1,0,0,0,1.582.138l1.024-.888-5.01-6.332-1.127.91a1.109,1.109,0,0,0-.413.75,1.133,1.133,0,0,0,.246.839Z" fill="#7c5295"/>
          <path id="Shape-4" data-name="Shape" d="M24.309,5.686l.074-.06L23.329,4.291l-8.664,6.964L15.727,12.6l.019-.015c.014-.013.021-.032.036-.045L24.309,5.69Z" fill="#7c5295"/>
          <path id="Rectangle-path" d="M27.582,36.506h25.71v2.14H27.582Z" transform="translate(-14.729 39.617) rotate(-45)" fill="#7c5295"/>
          <path id="Shape-5" data-name="Shape" d="M7.535,32.143a1.071,1.071,0,0,0,.687-.242l9.506-7.67-1.4-1.738L6.846,30.137a1.134,1.134,0,0,0-.173,1.586,1.091,1.091,0,0,0,.861.42Z" fill="#7c5295"/>
          <path id="Shape-6" data-name="Shape" d="M5.357,4.286V1.515L1.515,5.357H4.286A1.071,1.071,0,0,0,5.357,4.286Z" fill="#7c5295"/>
          <path id="Shape-7" data-name="Shape" d="M27.489,53.238a.245.245,0,0,0,.073.254.252.252,0,0,0,.279.061l5.357-2-3.7-3.7Z" fill="#7c5295"/>
          <path id="Rectangle-path-2" data-name="Rectangle-path" d="M30.608,39.534h25.71v2.138H30.608Z" transform="translate(-15.982 42.636) rotate(-45)" fill="#7c5295"/>
          <path id="Shape-8" data-name="Shape" d="M56.347,29.244,51.8,24.7,50.29,26.217l2.272,2.272h0l2.269,2.268Z" fill="#7c5295"/>
          <path id="Shape-9" data-name="Shape" d="M1.071,60H41.786a1.071,1.071,0,0,0,1.071-1.071V45.764L36.222,52.4a3.018,3.018,0,0,1-1.147.74l-6.511,2.431a2.508,2.508,0,0,1-.793.137c-.012,0-.02.006-.031.006H5.357a1.071,1.071,0,1,1,0-2.143H25.376a2.4,2.4,0,0,1,.1-1.056l2.444-6.541a3.039,3.039,0,0,1,.756-1.16L42.857,30.621V1.071A1.071,1.071,0,0,0,41.786,0H7.5V4.286A3.214,3.214,0,0,1,4.286,7.5H0V58.929A1.071,1.071,0,0,0,1.071,60ZM5.5,28.47l9.493-7.655a3.25,3.25,0,0,1,.584-4.466l1.138-.92-.584-.738a2.093,2.093,0,0,1-.41.044,2.036,2.036,0,0,1-.241-.013,2.117,2.117,0,0,1-1.432-.793l-1.06-1.339a2.154,2.154,0,0,1,.339-3L22,2.625A2.131,2.131,0,0,1,25,2.966L26.061,4.3a2.143,2.143,0,0,1,.267,2.208l8.714,11.015a2.069,2.069,0,0,1,2.007.775l1.059,1.339a2.151,2.151,0,0,1-.338,3.005L29.1,29.612a2.106,2.106,0,0,1-1.329.469,2.343,2.343,0,0,1-.243-.013,2.117,2.117,0,0,1-1.433-.8l-1.06-1.339a2.15,2.15,0,0,1-.236-2.279l-.411-.52-.951.825a3.22,3.22,0,0,1-2.123.8c-.1,0-.194-.005-.291-.013a3.208,3.208,0,0,1-1.913-.864l-9.536,7.7A3.238,3.238,0,0,1,5,33.064a3.285,3.285,0,0,1,.5-4.594ZM5.357,37.5H30a1.071,1.071,0,1,1,0,2.143H5.357a1.071,1.071,0,1,1,0-2.143Zm0,5.357H24.643a1.071,1.071,0,0,1,0,2.143H5.357a1.071,1.071,0,0,1,0-2.143Zm0,5.357H21.429a1.071,1.071,0,1,1,0,2.143H5.357a1.071,1.071,0,1,1,0-2.143Z" fill="#7c5295"/>
          <path id="Shape-10" data-name="Shape" d="M53.319,23.186l4.544,4.543,1.487-1.486a2.165,2.165,0,0,0,.643-1.532,2.143,2.143,0,0,0-.621-1.527l-1.507-1.507a2.136,2.136,0,0,0-1.51-.616,2.207,2.207,0,0,0-1.562.648Z" fill="#7c5295"/>
        </g>
      </g>
    </g>
  </g>
</svg>
