<svg id="lock-Filled" xmlns="http://www.w3.org/2000/svg" width="21.312" height="24" viewBox="0 0 21.312 24">
  <rect id="Path" width="21.312" height="24" fill="rgba(255,255,255,0)"/>
  <path id="lock-Filled_1_" d="M698.6,2490.99V2488a4.471,4.471,0,1,0-8.88,0v2.99a4.562,4.562,0,0,0-2.22,4.01v3a4.277,4.277,0,0,0,4,4.5h5.328a4.277,4.277,0,0,0,4-4.5v-3A4.562,4.562,0,0,0,698.6,2490.99Zm-3.552,6.01a.894.894,0,1,1-1.776,0v-1a.894.894,0,1,1,1.776,0Zm1.776-6.5H691.5V2488a2.683,2.683,0,1,1,5.328,0Z" transform="translate(-683.504 -2481)" fill="#7c5295"/>
</svg>
