<svg id="log-out-Filled" xmlns="http://www.w3.org/2000/svg" width="21.312" height="24" viewBox="0 0 21.312 24">
  <rect id="Path" width="21.312" height="24" fill="rgba(255,255,255,0)"/>
  <path id="log-out-Filled_1_" d="M502.861,2573.969a.949.949,0,0,1-.888,1h-3.552a4.75,4.75,0,0,1-4.44-5v-10a4.75,4.75,0,0,1,4.44-5h3.552a1.007,1.007,0,0,1,0,2h-3.552a2.85,2.85,0,0,0-2.664,3v10a2.85,2.85,0,0,0,2.664,3h3.552A.948.948,0,0,1,502.861,2573.969Zm6.844-9.707-3.552-4a.818.818,0,0,0-1.256,0,1.09,1.09,0,0,0,0,1.414l2.036,2.293H500.2a1.007,1.007,0,0,0,0,2h6.736l-2.036,2.293a1.09,1.09,0,0,0,0,1.414.819.819,0,0,0,1.256,0l3.552-4A1.09,1.09,0,0,0,509.7,2564.262Z" transform="translate(-491.334 -2553)" fill="#f01d1d"/>
</svg>
