<svg xmlns="http://www.w3.org/2000/svg" xmlns:xlink="http://www.w3.org/1999/xlink" width="16" height="20" viewBox="0 0 16 20">
  <defs>
    <clipPath id="clip-path">
      <rect id="Rectangle_6277" data-name="Rectangle 6277" width="16" height="20" transform="translate(192 347)" fill="#7c5295" stroke="#707070" stroke-width="1"/>
    </clipPath>
  </defs>
  <g id="Mask_Group_269" data-name="Mask Group 269" transform="translate(-192 -347)" clip-path="url(#clip-path)">
    <g id="living_room" data-name="living room" transform="translate(192 348.964)">
      <g id="living_room-2" data-name="living room" transform="translate(0)">
        <path id="Path_205757" data-name="Path 205757" d="M10.819,14.624a2.337,2.337,0,0,0-.609,0,.534.534,0,0,0-.46.575v4.55a.537.537,0,0,0,.46.589h.5a.423.423,0,0,0,.335-.17.664.664,0,0,0,.136-.419V15.2A.572.572,0,0,0,10.819,14.624Z" transform="translate(-3.179 -4.267)" fill="#7c5295"/>
        <path id="Path_205758" data-name="Path 205758" d="M21.207,14.624a2.352,2.352,0,0,0-.609.018.573.573,0,0,0-.349.557v4.55a.537.537,0,0,0,.46.589h.5a.423.423,0,0,0,.335-.17.665.665,0,0,0,.136-.419V15.2a.53.53,0,0,0-.471-.575Z" transform="translate(-5.679 -4.267)" fill="#7c5295"/>
        <path id="Path_205759" data-name="Path 205759" d="M12.375,20.161a.327.327,0,0,0,.286.357h4.857a.327.327,0,0,0,.286-.357V18.375H12.375Z" transform="translate(-3.804 -4.446)" fill="#7c5295"/>
        <path id="Path_205760" data-name="Path 205760" d="M16.946,15.75H13.232a.982.982,0,0,0-.857,1.071v.714H17.8v-.714A.982.982,0,0,0,16.946,15.75Z" transform="translate(-3.804 -4.321)" fill="#7c5295"/>
        <path id="Path_205761" data-name="Path 205761" d="M18.2,11.536A1.637,1.637,0,0,0,16.768,9.75H13.054a1.637,1.637,0,0,0-1.429,1.786v2.282a1.265,1.265,0,0,1,.531.8,2.074,2.074,0,0,1,.04.489c.391-.489,1.2-.357,4.571-.357a1.229,1.229,0,0,1,.766.279c.183.139.02.139.131-.411a1.333,1.333,0,0,1,.409-.714C18.239,13.746,18.2,14.182,18.2,11.536Z" transform="translate(-3.625 -4.036)" fill="#7c5295"/>
        <path id="Path_205762" data-name="Path 205762" d="M5.125,11.812c-1.671,0-1.237,0-1.143-.018A2.416,2.416,0,0,0,5.7,9.294a1.772,1.772,0,0,0-1.277.568,2.884,2.884,0,0,0-.591-1.8,2.876,2.876,0,0,0-.591,1.8,1.773,1.773,0,0,0-1.277-.568,2.42,2.42,0,0,0,1.714,2.5c.1.029.54.018-1.143.018l.489,2.143H1.125v6.071H1.7V18.241H5.982v1.786h.571V13.955H4.628Zm-.571,4.643H3.125v-.714H4.554Z" transform="translate(-1.125 -3.955)" fill="#7c5295"/>
        <path id="Path_205763" data-name="Path 205763" d="M9.036,7.679H10.75L10.464,3.75H7.036L6.75,7.679H8.464v7a1.361,1.361,0,0,1,.571-1.157Z" transform="translate(-2.464 -3.75)" fill="#7c5295"/>
      </g>
    </g>
  </g>
</svg>
