<svg id="clock-Filled" xmlns="http://www.w3.org/2000/svg" xmlns:xlink="http://www.w3.org/1999/xlink" width="18" height="18" viewBox="0 0 18 18">
  <defs>
    <clipPath id="clip-path">
      <rect id="Path" width="18" height="18" fill="#038da0"/>
    </clipPath>
  </defs>
  <g id="Mask_Group_12" data-name="Mask Group 12" clip-path="url(#clip-path)">
    <g id="layer1" transform="translate(-0.68 -4.385)">
      <g id="g5883" transform="translate(-3.823 -31.792)">
        <g id="g4862" transform="translate(-0.907 -5.374) rotate(180)">
          <g id="g4820" transform="translate(-0.779 8.801)">
            <g id="g4822">
              <path id="path4824" d="M-23.127-51.582l5.452-3.7.065-.043,1.082.411,2.293,1.06,2.077,1.06,2.25,1.212,3.353,2.012.952.584-5.279,2.661-4.457-2.358L-17.481-49.7l-2.942-1.06Z" transform="translate(0.779 -10.255)" fill="#603881"/>
              <path id="path4826" d="M-10.08-56.493a49.153,49.153,0,0,0-12.55-5.359l5.755-3.857A74.715,74.715,0,0,1-4.631-59.262l-5.45,2.769Zm-.038-.2,5.053-2.566a74.253,74.253,0,0,0-11.75-6.205l-5.335,3.575a49.769,49.769,0,0,1,12.032,5.2Z" fill="#603881"/>
            </g>
          </g>
          <g id="g4812" transform="translate(-0.779 9.286)">
            <g id="g4814">
              <path id="path4816" d="M-23.127-51.582l5.452-3.7.065-.043,1.082.411,2.293,1.06,2.077,1.06,2.25,1.212,3.353,2.012.952.584-5.279,2.661-4.457-2.358L-17.481-49.7l-2.942-1.06Z" transform="translate(0.779 -10.255)" fill="#603881"/>
              <path id="path4818" d="M-10.08-56.493a49.153,49.153,0,0,0-12.55-5.359l5.755-3.857A74.715,74.715,0,0,1-4.631-59.262l-5.45,2.769Zm-.038-.2,5.053-2.566a74.253,74.253,0,0,0-11.75-6.205l-5.335,3.575a49.769,49.769,0,0,1,12.032,5.2Z" fill="#603881"/>
            </g>
          </g>
          <g id="g4804" transform="translate(-0.779 9.77)">
            <g id="g4806">
              <path id="path4808" d="M-23.127-51.582l5.452-3.7.065-.043,1.082.411,2.293,1.06,2.077,1.06,2.25,1.212,3.353,2.012.952.584-5.279,2.661-4.457-2.358L-17.481-49.7l-2.942-1.06Z" transform="translate(0.779 -10.255)" fill="#fff"/>
              <path id="path4810" d="M-10.08-56.493a49.153,49.153,0,0,0-12.55-5.359l5.755-3.857A74.715,74.715,0,0,1-4.631-59.262l-5.45,2.769Zm-.038-.2,5.053-2.566a74.253,74.253,0,0,0-11.75-6.205l-5.335,3.575a49.769,49.769,0,0,1,12.032,5.2Z" fill="#603881"/>
            </g>
          </g>
          <g id="g4763" transform="translate(-0.779 10.255)">
            <g id="g4800">
              <path id="path4797" d="M-23.127-51.582l5.452-3.7.065-.043,1.082.411,2.293,1.06,2.077,1.06,2.25,1.212,3.353,2.012.952.584-5.279,2.661-4.457-2.358L-17.481-49.7l-2.942-1.06Z" transform="translate(0.779 -10.255)" fill="#603881"/>
              <path id="path4765" d="M-10.08-56.493a49.153,49.153,0,0,0-12.55-5.359l5.755-3.857A74.715,74.715,0,0,1-4.631-59.262l-5.45,2.769Zm-.038-.2,5.053-2.566a74.253,74.253,0,0,0-11.75-6.205l-5.335,3.575a49.769,49.769,0,0,1,12.032,5.2Z" fill="#603881"/>
            </g>
          </g>
          <g id="g4828" transform="translate(-0.779 10.739)">
            <g id="g4830">
              <path id="path4832" d="M-23.127-51.582l5.452-3.7.065-.043,1.082.411,2.293,1.06,2.077,1.06,2.25,1.212,3.353,2.012.952.584-5.279,2.661-4.457-2.358L-17.481-49.7l-2.942-1.06Z" transform="translate(0.779 -10.255)" fill="#603881"/>
              <path id="path4834" d="M-10.08-56.493a49.153,49.153,0,0,0-12.55-5.359l5.755-3.857A74.715,74.715,0,0,1-4.631-59.262l-5.45,2.769Zm-.038-.2,5.053-2.566a74.253,74.253,0,0,0-11.75-6.205l-5.335,3.575a49.769,49.769,0,0,1,12.032,5.2Z" fill="#603881"/>
            </g>
          </g>
          <g id="g4836" transform="translate(-0.779 11.224)">
            <g id="g4838">
              <path id="path4840" d="M-23.127-51.582l5.452-3.7.065-.043,1.082.411,2.293,1.06,2.077,1.06,2.25,1.212,3.353,2.012.952.584-5.279,2.661-4.457-2.358L-17.481-49.7l-2.942-1.06Z" transform="translate(0.779 -10.255)" fill="#fff"/>
              <path id="path4842" d="M-10.08-56.493a49.153,49.153,0,0,0-12.55-5.359l5.755-3.857A74.715,74.715,0,0,1-4.631-59.262l-5.45,2.769Zm-.038-.2,5.053-2.566a74.253,74.253,0,0,0-11.75-6.205l-5.335,3.575a49.769,49.769,0,0,1,12.032,5.2Z" fill="#603881"/>
            </g>
          </g>
          <g id="g4844" transform="translate(-0.779 11.709)">
            <g id="g4846">
              <path id="path4848" d="M-23.127-51.582l5.452-3.7.065-.043,1.082.411,2.293,1.06,2.077,1.06,2.25,1.212,3.353,2.012.952.584-5.279,2.661-4.457-2.358L-17.481-49.7l-2.942-1.06Z" transform="translate(0.779 -10.255)" fill="#fff"/>
              <path id="path4850" d="M-10.08-56.493a49.153,49.153,0,0,0-12.55-5.359l5.755-3.857A74.715,74.715,0,0,1-4.631-59.262l-5.45,2.769Zm-.038-.2,5.053-2.566a74.253,74.253,0,0,0-11.75-6.205l-5.335,3.575a49.769,49.769,0,0,1,12.032,5.2Z" fill="#603881"/>
            </g>
          </g>
          <g id="g4852" transform="translate(-0.779 12.193)">
            <g id="g4854">
              <path id="path4856" d="M-23.127-51.582l5.452-3.7.065-.043,1.082.411,2.293,1.06,2.077,1.06,2.25,1.212,3.353,2.012.952.584-5.279,2.661-4.457-2.358L-17.481-49.7l-2.942-1.06Z" transform="translate(0.779 -10.255)" fill="#603881"/>
              <path id="path4858" d="M-10.08-56.493a49.153,49.153,0,0,0-12.55-5.359l5.755-3.857A74.715,74.715,0,0,1-4.631-59.262l-5.45,2.769Zm-.038-.2,5.053-2.566a74.253,74.253,0,0,0-11.75-6.205l-5.335,3.575a49.769,49.769,0,0,1,12.032,5.2Z" fill="#603881"/>
            </g>
          </g>
          <g id="g4786" transform="translate(0 1.696)">
            <path id="path4774" d="M-21.894-51.127s.692-.476.779-.865,2.9-2.034,2.9-2.034h1.385l.952.216,2.38,1.125,1.9.822L-9.3-50.608l2.163,1.3v1.385l-3.115,1.471-1.558-.216-1.428-.865-3.5-1.558-4.543-1.6Z" fill="#fff"/>
            <g id="g4758">
              <path id="path4696" d="M-10.862-45.891A49.946,49.946,0,0,0-23.322-51l5.713-3.676A75.3,75.3,0,0,1-5.452-48.53Zm1.321-1.034,1.8-.931a1.7,1.7,0,0,1-.182-.761,1.707,1.707,0,0,1,.231-.856A52.054,52.054,0,0,0-16.155-53.7a2,2,0,0,1-1.348.492,2.051,2.051,0,0,1-1.151-.341l-2.113,1.371a1.34,1.34,0,0,1,.212.723,1.345,1.345,0,0,1-.235.753,59.682,59.682,0,0,1,8.727,3.627,2.592,2.592,0,0,1,1.136-.246,2.419,2.419,0,0,1,1.386.394Z" fill="#603881"/>
              <path id="path4733" d="M-17.733-49.687a2.011,2.011,0,0,1,1.018-2.228,4.361,4.361,0,0,1,3.23-.341Z" fill="#603881"/>
              <path id="path4756" d="M-9.986-50.638a1.832,1.832,0,0,1-.967,2.052,4.259,4.259,0,0,1-3.068.314Z" fill="#603881"/>
            </g>
          </g>
          <path id="path4860" d="M-17.589-47.709l4.933-3.029-.108-3.851,2.683,1.45-.043,3.808-4.76,2.834Z" fill="#603881"/>
        </g>
        <path id="path4903" d="M22.056,44.057l-.041.3-.263.242.345.215-.219.277.239.18-.176.3.253.281-.321.261.337.2-.412.277.386.168L21.911,47l.234.194-.292.324.355.218-5.192,3.548.165-.339L19.2,49.4l-1.61.792,2.5-1.852-2.221,1.213L20.4,47.617,18.237,48.85,20.6,47.022l-2.088,1.149,2.309-1.8-2.067,1.125,2.094-1.652-2,1.086,2.265-1.7-2,1.047,2.2-1.653-1.852,1.1Z" fill="#603881"/>
      </g>
    </g>
  </g>
</svg>
