<svg id="paperclip-Regular" xmlns="http://www.w3.org/2000/svg" width="24" height="24" viewBox="0 0 24 24">
  <rect id="Path" width="24" height="24" fill="rgba(255,255,255,0)"/>
  <path id="paperclip-Regular_1_" d="M703.531,1312.56,698.5,1317.6a7.388,7.388,0,0,1-5.2,2.148,7.015,7.015,0,0,1-5.009-2.053,7.257,7.257,0,0,1,.095-10.23l5.728-5.744a5.009,5.009,0,0,1,7.1,0,5.043,5.043,0,0,1,0,7.11l-5.755,5.771a2.949,2.949,0,0,1-4.079,0,2.9,2.9,0,0,1,0-4.085l5.055-5.069a.75.75,0,1,1,1.062,1.06l-5.055,5.069a1.394,1.394,0,0,0,0,1.966,1.411,1.411,0,0,0,1.954,0l5.755-5.771a3.539,3.539,0,0,0,0-4.991,3.591,3.591,0,0,0-4.971,0l-5.728,5.744a5.825,5.825,0,0,0-.095,8.111,5.522,5.522,0,0,0,3.946,1.612,5.878,5.878,0,0,0,4.136-1.708l5.028-5.042a.751.751,0,0,1,1.063,1.06Z" transform="translate(-683 -1298)" fill="#7c5295"/>
</svg>
