<svg xmlns="http://www.w3.org/2000/svg" width="60" height="47.629" viewBox="0 0 60 47.629">
  <g id="Group_74912" data-name="Group 74912" transform="translate(0 0)">
    <g id="Group_74911" data-name="Group 74911">
      <g id="Group_74910" data-name="Group 74910">
        <path id="Path_205732" data-name="Path 205732" d="M6.25,25.56H12.5a1.209,1.209,0,0,1-.985-.538,1.533,1.533,0,0,1-.227-1.2l.778-3.482A3.852,3.852,0,0,1,15.7,17.155H23.75a4,4,0,0,1,3.75,4.2v2.8a1.332,1.332,0,0,1-1.25,1.4h7.5a1.332,1.332,0,0,1-1.25-1.4v-2.8a4,4,0,0,1,3.75-4.2H44.3a3.852,3.852,0,0,1,3.637,3.183l.778,3.482a1.525,1.525,0,0,1-.227,1.2,1.209,1.209,0,0,1-.985.538h6.25a1.332,1.332,0,0,0,1.25-1.4V15.754c0-3.861-2.8-7-6.25-7H11.25c-3.445,0-6.25,3.144-6.25,7v8.405A1.332,1.332,0,0,0,6.25,25.56Z" transform="translate(0 -8.75)" fill="#7c5295"/>
        <path id="Path_205733" data-name="Path 205733" d="M53.75,26.25H6.25c-3.445,0-6.25,3.144-6.25,7V52.866a1.332,1.332,0,0,0,1.25,1.4,1.332,1.332,0,0,0,1.25-1.4v-4.2h55v4.2a1.258,1.258,0,1,0,2.5,0V33.254C60,29.393,57.195,26.25,53.75,26.25ZM57.5,45.862H2.5v-2.8h55v2.8Z" transform="translate(0 -6.638)" fill="#7c5295"/>
      </g>
    </g>
  </g>
</svg>

