<svg xmlns="http://www.w3.org/2000/svg" xmlns:xlink="http://www.w3.org/1999/xlink" width="60" height="60" viewBox="0 0 60 60">
  <defs>
    <clipPath id="clip-path">
      <path id="Path_205748" data-name="Path 205748" d="M0,0H60V60H0Z" transform="translate(69.187 293.18)" fill="#7c5295"/>
    </clipPath>
  </defs>
  <g id="service" transform="translate(-69.187 -293.18)" clip-path="url(#clip-path)">
    <g id="svgexport-10_2_" data-name="svgexport-10 (2)" transform="translate(69.187 293.18)">
      <g id="Group_74914" data-name="Group 74914">
        <g id="Group_74913" data-name="Group 74913">
          <path id="Path_205749" data-name="Path 205749" d="M31.761,0a7.24,7.24,0,0,0-7.148,7.148A7.24,7.24,0,0,0,31.761,14.3a7.149,7.149,0,0,0,0-14.3Z" fill="#7c5295"/>
        </g>
      </g>
      <g id="Group_74916" data-name="Group 74916">
        <g id="Group_74915" data-name="Group 74915">
          <path id="Path_205750" data-name="Path 205750" d="M39.565,14.3a10.483,10.483,0,0,1-7.8,3.516A10.739,10.739,0,0,1,23.84,14.3,10.466,10.466,0,0,0,21.1,21.328v1.758a1.757,1.757,0,0,0,1.758,1.758h17.7a1.757,1.757,0,0,0,1.758-1.758V21.328A10.466,10.466,0,0,0,39.565,14.3Z" fill="#7c5295"/>
        </g>
      </g>
      <g id="Group_74918" data-name="Group 74918">
        <g id="Group_74917" data-name="Group 74917">
          <path id="Path_205751" data-name="Path 205751" d="M16.986,53.953,8.028,35.994a3.515,3.515,0,0,0-4.706-1.581L.98,35.573a1.759,1.759,0,0,0-.791,2.362L10.736,59.028a1.76,1.76,0,0,0,2.353.79L15.4,58.673A3.516,3.516,0,0,0,16.986,53.953Z" fill="#7c5295"/>
        </g>
      </g>
      <g id="Group_74920" data-name="Group 74920">
        <g id="Group_74919" data-name="Group 74919">
          <path id="Path_205752" data-name="Path 205752" d="M58.562,29.027a3.5,3.5,0,0,0-4.641.457L44.312,41.3a4.249,4.249,0,0,1-2.6,1.125H33.519a1.758,1.758,0,1,1,0-3.516H40.55a3.516,3.516,0,1,0,0-7.031H31.339c-.876,0-1.313-.556-2-1.16a12.231,12.231,0,0,0-10.912-2.671,12.824,12.824,0,0,0-5.4,2.694l-.052-.042-2.542,2.238,9.992,20.035H40.55a10.59,10.59,0,0,0,8.438-4.219L59.3,33.984A3.543,3.543,0,0,0,58.562,29.027Z" fill="#7c5295"/>
        </g>
      </g>
    </g>
  </g>
</svg>
