<svg id="trash-Filled" xmlns="http://www.w3.org/2000/svg" width="24" height="24" viewBox="0 0 24 24">
  <path id="Path" d="M12,0A12,12,0,1,1,0,12,12,12,0,0,1,12,0Z" fill="#fff"/>
  <path id="trash-Filled_1_" d="M652,2557.974a.747.747,0,0,1-.75.744h-13.5a.744.744,0,1,1,0-1.487h2.669a.749.749,0,0,0,.712-.509l.237-.7a1.5,1.5,0,0,1,1.423-1.017h3.419a1.5,1.5,0,0,1,1.423,1.016l.237.706a.749.749,0,0,0,.712.508h2.669A.747.747,0,0,1,652,2557.974Zm-2.025,2.253-.457,6.841a2.633,2.633,0,0,1-2.625,2.432h-4.785a2.632,2.632,0,0,1-2.625-2.424l-.458-6.849a.378.378,0,0,1,.1-.275.393.393,0,0,1,.277-.119h10.2a.4.4,0,0,1,.277.119A.377.377,0,0,1,649.975,2560.227Zm-6.225,2.208a.75.75,0,0,0-1.5,0v3.718a.75.75,0,0,0,1.5,0Zm3,0a.75.75,0,0,0-1.5,0v3.718a.75.75,0,0,0,1.5,0Z" transform="translate(-632 -2550)" fill="#ff3d00"/>
</svg>
