<svg xmlns="http://www.w3.org/2000/svg" xmlns:xlink="http://www.w3.org/1999/xlink" width="18" height="18" viewBox="0 0 18 18">
  <defs>
    <clipPath id="clip-path">
      <rect id="Rectangle_6288" data-name="Rectangle 6288" width="18" height="18" transform="translate(248 275)" fill="#1976d2" stroke="#707070" stroke-width="1"/>
    </clipPath>
  </defs>
  <g id="unverified" transform="translate(-248 -275)" clip-path="url(#clip-path)">
    <g id="svgexport-7_3_" data-name="svgexport-7 (3)" transform="translate(248 275)">
      <g id="Group_74977" data-name="Group 74977" transform="translate(0 0)">
        <path id="Path_205774" data-name="Path 205774" d="M599.976,331.7a3.539,3.539,0,0,0-4.276,4.277,3.539,3.539,0,0,0,0,6.047,6,6,0,0,0,10.324,4.276,3.539,3.539,0,0,0,4.276-4.277,3.539,3.539,0,0,0,0-6.047,6,6,0,0,0-10.324-4.276Zm-.312,7.934,1.82,1.82a.9.9,0,0,0,1.273,0l3.58-3.58a.9.9,0,0,0-1.273-1.273l-2.944,2.945-1.183-1.184a.9.9,0,1,0-1.273,1.273Z" transform="translate(-594 -330)" fill="#1976d2"/>
        <g id="icon-add">
          <path id="Path_205775" data-name="Path 205775" d="M0,0H18V18H0Z" fill="#1976d2" opacity="0"/>
          <path id="Icon_ionic-ios-add" data-name="Icon ionic-ios-add" d="M7.5,3.5h-3V.5a.5.5,0,0,0-1,0v3H.5a.5.5,0,0,0,0,1h3v3a.5.5,0,0,0,1,0v-3h3a.5.5,0,1,0,0-1Z" transform="translate(9 3.343) rotate(45)" fill="#fff"/>
        </g>
      </g>
    </g>
  </g>
</svg>
